<svg xmlns:xlink="http://www.w3.org/1999/xlink" width="3.469ex" height="2.843ex" style="font-size: 15px; vertical-align: -1.005ex;" viewBox="0 -791.3 1493.4 1223.9" role="img" focusable="false" xmlns="http://www.w3.org/2000/svg">
<defs>
<path stroke-width="1" id="E1-MJMATHBI-3B2" d="M59 -194H49Q31 -194 28 -182Q28 -178 107 139T192 473Q212 533 248 580T324 652T395 689T450 701H461Q514 701 551 688T605 652T630 607T637 561Q637 546 634 526T611 465T556 393Q572 382 590 347T608 262Q608 146 522 69T299 -8Q279 -8 261 -6T228 2T204 13T183 26T169 37T157 48L150 56L120 -64Q113 -90 104 -128Q93 -175 89 -184T73 -194H59ZM531 592Q531 651 463 651Q399 651 341 600T253 466Q250 458 217 327T182 185Q180 176 180 159Q180 108 212 76T301 44Q330 44 354 51T393 65T423 91T444 118T459 151T468 179T475 206Q490 264 491 296Q491 313 489 326T484 345L482 350Q481 350 477 348T464 344T444 340T413 335T372 333T334 334T301 340T274 355T265 380Q265 444 397 444Q425 444 445 441T476 436L485 433Q489 433 499 458Q509 482 520 527T531 592ZM424 390Q424 393 389 393Q383 393 374 393T362 392Q348 392 333 388Q345 384 379 384Q424 384 424 390Z"></path>
<path stroke-width="1" id="E1-MJMATHI-69" d="M184 600Q184 624 203 642T247 661Q265 661 277 649T290 619Q290 596 270 577T226 557Q211 557 198 567T184 600ZM21 287Q21 295 30 318T54 369T98 420T158 442Q197 442 223 419T250 357Q250 340 236 301T196 196T154 83Q149 61 149 51Q149 26 166 26Q175 26 185 29T208 43T235 78T260 137Q263 149 265 151T282 153Q302 153 302 143Q302 135 293 112T268 61T223 11T161 -11Q129 -11 102 10T74 74Q74 91 79 106T122 220Q160 321 166 341T173 380Q173 404 156 404H154Q124 404 99 371T61 287Q60 286 59 284T58 281T56 279T53 278T49 278T41 278H27Q21 284 21 287Z"></path>
<path stroke-width="1" id="E1-MJMAIN-2C" d="M78 35T78 60T94 103T137 121Q165 121 187 96T210 8Q210 -27 201 -60T180 -117T154 -158T130 -185T117 -194Q113 -194 104 -185T95 -172Q95 -168 106 -156T131 -126T157 -76T173 -3V9L172 8Q170 7 167 6T161 3T152 1T140 0Q113 0 96 17Z"></path>
<path stroke-width="1" id="E1-MJMATHI-6A" d="M297 596Q297 627 318 644T361 661Q378 661 389 651T403 623Q403 595 384 576T340 557Q322 557 310 567T297 596ZM288 376Q288 405 262 405Q240 405 220 393T185 362T161 325T144 293L137 279Q135 278 121 278H107Q101 284 101 286T105 299Q126 348 164 391T252 441Q253 441 260 441T272 442Q296 441 316 432Q341 418 354 401T367 348V332L318 133Q267 -67 264 -75Q246 -125 194 -164T75 -204Q25 -204 7 -183T-12 -137Q-12 -110 7 -91T53 -71Q70 -71 82 -81T95 -112Q95 -148 63 -167Q69 -168 77 -168Q111 -168 139 -140T182 -74L193 -32Q204 11 219 72T251 197T278 308T289 365Q289 372 288 376Z"></path>
</defs>
<g stroke="currentColor" fill="currentColor" stroke-width="0" transform="matrix(1 0 0 -1 0 0)">
 <use xlink:href="#E1-MJMATHBI-3B2" x="0" y="0"></use>
<g transform="translate(660,-150)">
 <use transform="scale(0.707)" xlink:href="#E1-MJMATHI-69" x="0" y="0"></use>
 <use transform="scale(0.707)" xlink:href="#E1-MJMAIN-2C" x="345" y="0"></use>
 <use transform="scale(0.707)" xlink:href="#E1-MJMATHI-6A" x="624" y="0"></use>
</g>
</g>
</svg>